<mxfile host="app.diagrams.net" agent="Mozilla/5.0 (Windows NT 10.0; Win64; x64) AppleWebKit/537.36 (KHTML, like Gecko) Chrome/130.0.0.0 Safari/537.36" version="24.7.17">
  <diagram name="Page-1" id="g5ilt-8PIpiiePuTZQs6">
    <mxGraphModel dx="2084" dy="1124" grid="1" gridSize="10" guides="1" tooltips="1" connect="1" arrows="1" fold="1" page="1" pageScale="1" pageWidth="850" pageHeight="1100" math="0" shadow="0">
      <root>
        <mxCell id="0" />
        <mxCell id="1" parent="0" />
        <mxCell id="YLC8orPnVD28-5EO_9L3-1" value="locatie" style="swimlane;fontStyle=1;childLayout=stackLayout;horizontal=1;startSize=26;horizontalStack=0;resizeParent=1;resizeParentMax=0;resizeLast=0;collapsible=1;marginBottom=0;align=center;fontSize=14;strokeColor=#666666;fillColor=#f5f5f5;fontColor=#333333;" vertex="1" parent="1">
          <mxGeometry x="-230" y="150" width="160" height="160" as="geometry" />
        </mxCell>
        <mxCell id="YLC8orPnVD28-5EO_9L3-2" value="naam&#xa;address&#xa;telefoonnummer&#xa;maximumcapaciteit" style="text;strokeColor=none;fillColor=none;spacingLeft=4;spacingRight=4;overflow=hidden;rotatable=0;points=[[0,0.5],[1,0.5]];portConstraint=eastwest;fontSize=12;" vertex="1" parent="YLC8orPnVD28-5EO_9L3-1">
          <mxGeometry y="26" width="160" height="134" as="geometry" />
        </mxCell>
        <mxCell id="YLC8orPnVD28-5EO_9L3-33" value="concert" style="swimlane;fontStyle=1;childLayout=stackLayout;horizontal=1;startSize=26;horizontalStack=0;resizeParent=1;resizeParentMax=0;resizeLast=0;collapsible=1;marginBottom=0;align=center;fontSize=14;strokeColor=#666666;fillColor=#f5f5f5;fontColor=#333333;dashed=1;" vertex="1" parent="1">
          <mxGeometry x="160" y="150" width="160" height="140" as="geometry" />
        </mxCell>
        <mxCell id="YLC8orPnVD28-5EO_9L3-34" value="name&#xa;datum&#xa;beginuur&#xa;einduur&#xa;artisten&#xa;prijscategorie" style="text;strokeColor=none;fillColor=none;spacingLeft=4;spacingRight=4;overflow=hidden;rotatable=0;points=[[0,0.5],[1,0.5]];portConstraint=eastwest;fontSize=12;" vertex="1" parent="YLC8orPnVD28-5EO_9L3-33">
          <mxGeometry y="26" width="160" height="114" as="geometry" />
        </mxCell>
        <mxCell id="YLC8orPnVD28-5EO_9L3-35" value="artist" style="swimlane;fontStyle=1;childLayout=stackLayout;horizontal=1;startSize=26;horizontalStack=0;resizeParent=1;resizeParentMax=0;resizeLast=0;collapsible=1;marginBottom=0;align=center;fontSize=14;strokeColor=#666666;fillColor=#f5f5f5;fontColor=#333333;dashed=1;" vertex="1" parent="1">
          <mxGeometry x="330" y="430" width="160" height="110" as="geometry" />
        </mxCell>
        <mxCell id="YLC8orPnVD28-5EO_9L3-36" value="code&#xa;name&#xa;nationality&#xa;price/h&#xa;description" style="text;strokeColor=none;fillColor=none;spacingLeft=4;spacingRight=4;overflow=hidden;rotatable=0;points=[[0,0.5],[1,0.5]];portConstraint=eastwest;fontSize=12;" vertex="1" parent="YLC8orPnVD28-5EO_9L3-35">
          <mxGeometry y="26" width="160" height="84" as="geometry" />
        </mxCell>
        <mxCell id="YLC8orPnVD28-5EO_9L3-37" value="" style="endArrow=none;html=1;rounded=0;entryX=0.006;entryY=0.43;entryDx=0;entryDy=0;entryPerimeter=0;exitX=1;exitY=0.396;exitDx=0;exitDy=0;exitPerimeter=0;" edge="1" parent="1" source="YLC8orPnVD28-5EO_9L3-2" target="YLC8orPnVD28-5EO_9L3-34">
          <mxGeometry width="50" height="50" relative="1" as="geometry">
            <mxPoint x="380" y="540" as="sourcePoint" />
            <mxPoint x="430" y="490" as="targetPoint" />
          </mxGeometry>
        </mxCell>
        <mxCell id="YLC8orPnVD28-5EO_9L3-38" value="can a locatio have more than one concert ?" style="text;html=1;align=center;verticalAlign=middle;whiteSpace=wrap;rounded=0;" vertex="1" parent="1">
          <mxGeometry x="-190" y="30" width="320" height="30" as="geometry" />
        </mxCell>
        <mxCell id="YLC8orPnVD28-5EO_9L3-39" value="can a concert have more than one location ?" style="text;html=1;align=center;verticalAlign=middle;whiteSpace=wrap;rounded=0;" vertex="1" parent="1">
          <mxGeometry x="-80" y="50" width="270" height="30" as="geometry" />
        </mxCell>
        <mxCell id="YLC8orPnVD28-5EO_9L3-40" value="can a concert have multiple artists ?" style="text;html=1;align=center;verticalAlign=middle;whiteSpace=wrap;rounded=0;" vertex="1" parent="1">
          <mxGeometry x="480" y="520" width="290" height="30" as="geometry" />
        </mxCell>
        <mxCell id="YLC8orPnVD28-5EO_9L3-43" value="can artists have multiple concerts ?" style="text;html=1;align=center;verticalAlign=middle;whiteSpace=wrap;rounded=0;" vertex="1" parent="1">
          <mxGeometry x="440" y="560" width="390" height="30" as="geometry" />
        </mxCell>
        <mxCell id="YLC8orPnVD28-5EO_9L3-44" value="price" style="swimlane;fontStyle=1;childLayout=stackLayout;horizontal=1;startSize=26;horizontalStack=0;resizeParent=1;resizeParentMax=0;resizeLast=0;collapsible=1;marginBottom=0;align=center;fontSize=14;strokeColor=#666666;fillColor=#f5f5f5;fontColor=#333333;dashed=1;" vertex="1" parent="1">
          <mxGeometry x="580" y="160" width="160" height="100" as="geometry" />
        </mxCell>
        <mxCell id="YLC8orPnVD28-5EO_9L3-45" value="code&#xa;name&#xa;price&#xa;" style="text;strokeColor=none;fillColor=none;spacingLeft=4;spacingRight=4;overflow=hidden;rotatable=0;points=[[0,0.5],[1,0.5]];portConstraint=eastwest;fontSize=12;" vertex="1" parent="YLC8orPnVD28-5EO_9L3-44">
          <mxGeometry y="26" width="160" height="74" as="geometry" />
        </mxCell>
        <mxCell id="YLC8orPnVD28-5EO_9L3-46" value="can a concert have no location ?&lt;div&gt;&lt;br&gt;&lt;/div&gt;" style="text;html=1;align=center;verticalAlign=middle;whiteSpace=wrap;rounded=0;" vertex="1" parent="1">
          <mxGeometry x="-130" y="360" width="260" height="30" as="geometry" />
        </mxCell>
        <mxCell id="YLC8orPnVD28-5EO_9L3-47" value="can a location have no concerts?" style="text;html=1;align=center;verticalAlign=middle;whiteSpace=wrap;rounded=0;" vertex="1" parent="1">
          <mxGeometry x="-30" y="370" width="220" height="30" as="geometry" />
        </mxCell>
        <mxCell id="YLC8orPnVD28-5EO_9L3-48" value="N" style="text;html=1;align=center;verticalAlign=middle;whiteSpace=wrap;rounded=0;fontSize=20;" vertex="1" parent="1">
          <mxGeometry x="-40" y="195" width="30" height="30" as="geometry" />
        </mxCell>
        <mxCell id="YLC8orPnVD28-5EO_9L3-50" value="&lt;font style=&quot;font-size: 20px;&quot;&gt;...&lt;/font&gt;" style="text;html=1;align=center;verticalAlign=middle;whiteSpace=wrap;rounded=0;" vertex="1" parent="1">
          <mxGeometry x="-70" y="195" width="60" height="30" as="geometry" />
        </mxCell>
      </root>
    </mxGraphModel>
  </diagram>
</mxfile>
